<svg xmlns="http://www.w3.org/2000/svg" viewBox="0 0 701.41 553.92"><defs><style>.cls-1{fill:none;stroke:#00151e;stroke-miterlimit:10;stroke-width:0.25px;}</style></defs><title>SVGID-2</title><g id="Layer_2" data-name="Layer 2"><g id="Layer_1-2" data-name="Layer 1"><path id="SVGID-2" class="cls-1" d="M690.63,160.35h0a189.46,189.46,0,0,1-19.87-12.94,15.78,15.78,0,0,0-7.71-9.67c-3-7.43-8.1-12.14-15.51-14.37-5.08-1.53-7.35-4.38-7.58-9.52a17.2,17.2,0,0,0-6.41-12.79,19.3,19.3,0,0,0-15.34-3.83,28.67,28.67,0,0,1-5.48.22c-14.48-.51-28.64-1.16-42.57-3.16-10.1-1.51-18.43-3-25.93-6.6-17.69-8.61-36.37-15-54.44-21.11-7.38-2.51-15-5.1-22.43-7.8a25.44,25.44,0,0,0-7.8-1.64,131.2,131.2,0,0,0-33.87,3.1,243.83,243.83,0,0,0-59.46,21.27c-.91.46-1.8.93-2.69,1.41-4,2.08-7.69,4.06-11.75,4.65-7.9,1.13-13.9,5.72-18.38,14a41.46,41.46,0,0,0-3.45,9.87c-.19.78-.39,1.57-.6,2.35l-1,3.61c-1.78,6.25-3.62,12.71-3.62,19.59,0,4.39-1.8,8-5.66,11.25-7.28,6.19-11.52,13.24-13,21.57-.26,1.47-.68,3-1.13,4.61-.2.74-.41,1.49-.6,2.24a17.56,17.56,0,0,1-8.12,11.16l-.88-.14-2.91-.39-.65-.12h-.2a36.19,36.19,0,0,1-9.33-12.46,33.34,33.34,0,0,0-6.16-9.68c-8.17-8.54-17.14-16.35-25.82-23.9l-1.54-1.34c-2.94-2.56-4.49-5-4.37-6.87.14-2.22,2.67-4.36,4.76-5.75,4.8-3.21,7.2-7.88,7.13-13.9a45.09,45.09,0,0,0-1.92-11.24,38.59,38.59,0,0,1-1.6-8.77c-.13-5.58.76-8.36,3.55-11,8.44-8,15.91-17.44,13.4-31.74-.69-3.9-1.73-9.81-8-12.93-4.32-2.15-7-5.8-8.82-11.82-.7-2.37-1.47-4.73-2.21-7-.53-1.63-1.07-3.27-1.58-4.91-2-6.37-6.31-11.24-11.62-13A14.16,14.16,0,0,0,224.38,3c-.8.58-1.61,1.14-2.43,1.71C217,8.13,211.48,12,207.7,17.89c-8.24.62-12.94,6.14-14.06,12a14.76,14.76,0,0,0,1.86,12.16,7.88,7.88,0,0,1,1.59,6.05,16.17,16.17,0,0,1-1.2,2.61,6.21,6.21,0,0,0-1.69,2.58c-4.9,2.81-6.29,7.76-7.25,11.19-.18.63-.35,1.24-.53,1.81-.14.13-.27.26-.4.4a5.45,5.45,0,0,0-.76,1.07,16.31,16.31,0,0,0-5.88,15.81l-.18.6a28.36,28.36,0,0,0-7.92,13.49,5.64,5.64,0,0,0-2.41,3.06,25.5,25.5,0,0,0-4.27,7.85c-.52,1.66-1,3.46-1.44,5.42-1,4.09-1.65,8.24-2.29,12.24-.56,3.55-1.09,6.9-1.82,10.14a49.69,49.69,0,0,1-2.35,7.4,6.48,6.48,0,0,0-.43,1.58,7.54,7.54,0,0,0-.13,4.08c-.13.43-.25.86-.38,1.28-1.79,6.06-3.33,11.3-8,14.94-.45.34-1,.72-1.59,1.11-2.34,1.58-5.66,3.82-7.11,7.84a25.68,25.68,0,0,0-4.3,3.27A18.93,18.93,0,0,1,132,180a18.56,18.56,0,0,0-9.38,12.66,21.68,21.68,0,0,0-.7,6.42,14,14,0,0,0-8.47,10.31,15.16,15.16,0,0,0,.33,8.72,10.5,10.5,0,0,1,.52,4.91,5.7,5.7,0,0,1-.45,1.09c-1.42,2.69-2.63,5.43-3.8,8.08a74.44,74.44,0,0,1-5.71,11.22c-3.34,1.35-5,4.18-4.91,8.44a6.62,6.62,0,0,0-2.27,2.43A78.53,78.53,0,0,1,89.74,265a92.33,92.33,0,0,0-8,11.41c-3,5.34-7.27,7.52-13,6.68-.41-.06-.83-.14-1.26-.23-2.43-.47-6.31-1.23-10,1.23-5.27,1.09-8.3,4.94-10.56,7.81l-.42.54a10.36,10.36,0,0,0-1.06,1.68c-6.78,2.52-9.13,7.43-9.88,11.29a22.09,22.09,0,0,0-.32,9.05l.17,1.16.37.55a10.47,10.47,0,0,0,2.22,5.71c-.37.31-.76.66-1.15,1a9,9,0,0,0-3.18,1.59c-5.6,4.35-11.83,8.62-19.83,10.69C5.56,337.29,2.28,341.83,1,345.29c-1.92,5.14-.67,11.3,3.52,17.34a7.2,7.2,0,0,1,1.08,5.19v.4a26.16,26.16,0,0,0-.15,5.16l-.16.11.17,2.8a6.4,6.4,0,0,1-.11,1.63c-.27.95-.64,1.95-1,3a36.54,36.54,0,0,0-1.71,5.44A19.44,19.44,0,0,0,2,390.79a12.75,12.75,0,0,0-.36,6.82,4.63,4.63,0,0,0,.1.65c.71,5.12,7.61,10.51,11,11.84s5.7.17,6.74-.66l.15-.12.56,2.33c-.31,6,.31,12.22,5.45,17.24,5.69,5.54,11.1,11.62,16.34,17.49l1.56,1.74v.27l.15.6c.52,2.08,1.3,5.22,3.73,7.68,2,2,4,4.19,6,6.27,7.19,7.59,14.61,15.43,24,21.31,5.41,3.37,11.86,6.9,20,5.95h.27a38.78,38.78,0,0,0,9.91,1.54c1.71.1,3.32.2,4.84.44,8.93,1.43,12,4.32,13.85,12.89.2.93.38,1.88.55,2.83,1,5.61,2.24,12,7.29,16.75a119.08,119.08,0,0,1,11,12.54c1.74,2.19,3.53,4.44,5.41,6.64,1.38,1.62,5.36,6.28,11.5,6.29h.15l.69.28.78.32,2.91.15,1.53,0a34.94,34.94,0,0,0,7.75,1.62c.88.11,1.75.22,2.61.36a72.85,72.85,0,0,0,11.7,1c16.12,0,31.25-5.7,45.13-17.07,10.54-8.63,20.35-15.74,33.84-15.3,12.61.4,17.86-11.11,20.09-16s6.4-10.45,14.32-10.63c4.34-.1,8.77-.14,13-.18,3.47,0,6.93-.07,10.4-.13a31.43,31.43,0,0,0,14.82-3.55l1.79-1c12.22-6.72,24.85-13.67,38.19-18a5.16,5.16,0,0,0,4,1.22,5.62,5.62,0,0,0,4.47-3.51,9,9,0,0,0,1.17-.25l2.66-.51c7.51,1.09,16.21,1.79,25.35-1.88,1.84-.73,3.62-1.57,5.34-2.37,5.17-2.42,9.63-4.51,14.81-4a10.27,10.27,0,0,0,7.89-2.49,12.65,12.65,0,0,0,4-8.34l.72-1.28c6.27-4.56,10.11-9.28,12-14.75,7.66-21.85,26-34.27,43.74-46.28,3.12-2.11,6.4-4.17,9.56-6.16,9.13-5.75,18.58-11.69,26.46-20.1,4.51-4.8,8.6-10.43,8-19a118.73,118.73,0,0,0-9.12-37.55c-4.12-10-5.67-19.06-4.73-27.65.91-8.33,3.34-13.63,7.88-17.18,7.06-5.51,15.6-9.32,23.86-13l3.93-1.76c5.68-2.57,12-3.85,18.66-5.2,3-.62,6.15-1.25,9.23-2a93.94,93.94,0,0,0,35.59-17.14c8.51-6.68,16.59-9.67,25.41-9.4,3.23.1,6.48.09,9.62.08,2.76,0,5.61,0,8.38.06,4.45.11,7.7-1.82,10.29-3.72,6.54-4.81,7.77-11.67,8.76-17.18a46.61,46.61,0,0,1,1.1-5.12C703,177.59,697.67,164.29,690.63,160.35Z"/></g></g></svg>